<svg xmlns="http://www.w3.org/2000/svg" viewBox="0 0 204 58">
    <path fill="#ad2167" d="M15.13 12.55a16.84 16.84 0 0 1-.48 3.06 6.89 6.89 0 0 1-1.25 2.58 2.65 2.65 0 0 1 .81.85 5.18 5.18 0 0 1 .55 1.19 7.31 7.31 0 0 1 .24 1.33 9.35 9.35 0 0 1 .09 1.22 11.33 11.33 0 0 1-.41 2.55 5 5 0 0 1-1.17 2.06 5.74 5.74 0 0 1-2.29 1.36 11.74 11.74 0 0 1-3.73.49 12.85 12.85 0 0 1-3.2-.37H.41a.4.4 0 0 1-.29-.12.4.4 0 0 1-.12-.29V3.84a.4.4 0 0 1 .12-.29.4.4 0 0 1 .29-.12h3.92a12.4 12.4 0 0 1 3.2-.37 9 9 0 0 1 3.72.66 6 6 0 0 1 2.26 1.75A6.64 6.64 0 0 1 14.69 8a18.42 18.42 0 0 1 .44 2.94zm-7.82-4a2 2 0 0 0-1.9.86 5.85 5.85 0 0 0-.65 2.44v.57a5 5 0 0 0 .75 2.42 2.3 2.3 0 0 0 2 .88 2.52 2.52 0 0 0 2.24-.85 4.07 4.07 0 0 0 .58-2.34 8.78 8.78 0 0 0-.19-1.62 4 4 0 0 0-.47-1.26 2.21 2.21 0 0 0-.9-.81 3.29 3.29 0 0 0-1.46-.27zm0 17.34a3 3 0 0 0 2.33-.77 4.14 4.14 0 0 0 .73-2.53 8.78 8.78 0 0 0-.19-1.59 4 4 0 0 0-.47-1.25 2.23 2.23 0 0 0-.9-.82 3.42 3.42 0 0 0-1.5-.29 2 2 0 0 0-1.9.87 5.78 5.78 0 0 0-.65 2.4v.71a3.67 3.67 0 0 0 .71 2.51 2.36 2.36 0 0 0 1.84.78zM22.44 9.79H18.5a.41.41 0 0 1-.41-.41V5.47c0-.27.13-.4.41-.4h3.94a.36.36 0 0 1 .41.4v3.91a.38.38 0 0 1-.12.29.4.4 0 0 1-.29.12zm0 19.11H18.5a.36.36 0 0 1-.41-.41V12.31a.36.36 0 0 1 .41-.41h3.94a.37.37 0 0 1 .41.41v16.18a.37.37 0 0 1-.41.41zM36.31 24v-2.86a9.25 9.25 0 0 0-.21-2.34 3.1 3.1 0 0 0-.85-1.58 2.75 2.75 0 0 0-1.92-.58 2.35 2.35 0 0 0-1.69.55 3.05 3.05 0 0 0-.81 1.56 11.47 11.47 0 0 0-.25 2.47v7.29a.41.41 0 0 1-.41.41h-3.89c-.29 0-.44-.14-.44-.41v-5.97-2.45a16.08 16.08 0 0 1 .16-2.43 10 10 0 0 1 .54-2.22 4.67 4.67 0 0 1 1.23-1.84A5.76 5.76 0 0 1 30 12.36a11.27 11.27 0 0 1 3.51-.46 8.18 8.18 0 0 1 4.19.9 5.93 5.93 0 0 1 2.28 2.36 8.94 8.94 0 0 1 1 3.27 33.11 33.11 0 0 1 .09 3.57v6.49a.41.41 0 0 1-.41.41h-3.94a.37.37 0 0 1-.41-.41zM56.88 13.7a3.52 3.52 0 0 1 .55.55 4.58 4.58 0 0 1 .56.91 7.94 7.94 0 0 1 .44 1.28 6.71 6.71 0 0 1 .19 1.61v9.56a2.19 2.19 0 0 1-.19.86.75.75 0 0 1-.77.43H54.2a12.53 12.53 0 0 1-3.23.37q-3.67 0-5.31-1.2A4.34 4.34 0 0 1 44 24.34a4.91 4.91 0 0 1 .32-1.7 5.27 5.27 0 0 1 .95-1.56 6.36 6.36 0 0 1 1.53-1.26 6.6 6.6 0 0 1 2-.78 6 6 0 0 1 1.26-.15 10.37 10.37 0 0 1 1.36.05 6.35 6.35 0 0 1 1.27.24 4.08 4.08 0 0 1 1 .4v-.75a3.05 3.05 0 0 0-.91-1.68 3 3 0 0 0-2-.59 2.26 2.26 0 0 0-1.5.44 2.74 2.74 0 0 0-.78 1.22l-4.49-1.87a6.85 6.85 0 0 1 .79-1.7 6.57 6.57 0 0 1 1-1.22 5.63 5.63 0 0 1 1.18-.83 6 6 0 0 1 1.22-.5 6.71 6.71 0 0 1 1.27-.22c.47 0 1-.05 1.48-.05a9 9 0 0 1 5.85 1.87zm-3.13 10.51a2.19 2.19 0 0 0-.75-1.82 3.44 3.44 0 0 0-2.21-.63 2.44 2.44 0 0 0-.92.19 3.48 3.48 0 0 0-.86.49 2.74 2.74 0 0 0-.65.71 1.72 1.72 0 0 0-.25.92A2.59 2.59 0 0 0 51 26.83a3.45 3.45 0 0 0 2-.7 2.28 2.28 0 0 0 .75-1.92zM71.91 12.14a7 7 0 0 1 2.4 1.35 6.27 6.27 0 0 1 1.81 3l-4.48 1.88a2.72 2.72 0 0 0-.78-1.26 2.2 2.2 0 0 0-1.5-.45 2.63 2.63 0 0 0-2.36 1 4.51 4.51 0 0 0-.67 2.61v8.27a.38.38 0 0 1-.12.29.38.38 0 0 1-.28.12H62a.4.4 0 0 1-.29-.12.38.38 0 0 1-.12-.29V12.31a.37.37 0 0 1 .41-.41h4a.37.37 0 0 1 .4.34 9.82 9.82 0 0 1 2.83-.34h1.47a5.52 5.52 0 0 1 1.21.24zM87.69 21.28v7.21a.37.37 0 0 1-.41.41h-4.7a.38.38 0 0 1-.28-.12.38.38 0 0 1-.12-.29v-7.24l-4.59-8.81a.32.32 0 0 1 .13-.54h4.56a.55.55 0 0 1 .61.2l2 4.42L87 12.1a.34.34 0 0 1 .26-.2 1.09 1.09 0 0 1 .36 0h4.55c.23.11.27.29.14.54zM106.08 9.89a10.28 10.28 0 0 0-2.91.4 6.18 6.18 0 0 0-2.41 1.29A6.26 6.26 0 0 0 99.11 14a9.74 9.74 0 0 0-.61 3.68 6.89 6.89 0 0 0 .66 3.21 5.09 5.09 0 0 0 1.75 2 7 7 0 0 0 2.48 1 14.38 14.38 0 0 0 2.89.29h2a.36.36 0 0 1 .41.4v3.92a.37.37 0 0 1-.41.41h-3.94a11.94 11.94 0 0 1-3.67-.6 9.7 9.7 0 0 1-3.44-1.92 9.91 9.91 0 0 1-2.55-3.43 12 12 0 0 1-1-5.12 16 16 0 0 1 1-5.88A11.27 11.27 0 0 1 97.14 8a9 9 0 0 1 3.33-2.17 10.23 10.23 0 0 1 3.64-.68h4.21a.36.36 0 0 1 .41.4v3.94a.36.36 0 0 1-.41.4zM124.54 13.7a3.14 3.14 0 0 1 .54.55 4.17 4.17 0 0 1 .57.91 7.94 7.94 0 0 1 .44 1.28 6.72 6.72 0 0 1 .18 1.61v9.56a2.18 2.18 0 0 1-.18.86.75.75 0 0 1-.77.43h-3.47a12.48 12.48 0 0 1-3.23.37q-3.66 0-5.3-1.2a4.34 4.34 0 0 1-1.63-3.73 4.91 4.91 0 0 1 .32-1.7 5.27 5.27 0 0 1 .95-1.56 6.36 6.36 0 0 1 1.53-1.26 6.6 6.6 0 0 1 2-.78 6 6 0 0 1 1.25-.15 10.24 10.24 0 0 1 1.36.05 6.32 6.32 0 0 1 1.28.24 4.08 4.08 0 0 1 1 .4v-.75a2.62 2.62 0 0 0-2.92-2.27A2.26 2.26 0 0 0 117 17a2.74 2.74 0 0 0-.78 1.22l-4.49-1.87a7.22 7.22 0 0 1 .78-1.7 7 7 0 0 1 1-1.22 5.85 5.85 0 0 1 1.17-.83 6.36 6.36 0 0 1 1.23-.5 6.71 6.71 0 0 1 1.27-.22c.47 0 1-.05 1.48-.05a9.91 9.91 0 0 1 3.2.46 10 10 0 0 1 2.68 1.41zm-3.13 10.51a2.19 2.19 0 0 0-.78-1.82 3.44 3.44 0 0 0-2.21-.63 2.44 2.44 0 0 0-.92.19 3.31 3.31 0 0 0-.86.49 2.57 2.57 0 0 0-.65.71 1.73 1.73 0 0 0-.26.92 2.7 2.7 0 0 0 .75 2 2.67 2.67 0 0 0 2.14.75 3.46 3.46 0 0 0 2-.7 2.28 2.28 0 0 0 .79-1.91zM144.36 21a17.35 17.35 0 0 1-.44 2.94 7 7 0 0 1-1.16 2.51 5.67 5.67 0 0 1-2.27 1.77 9.05 9.05 0 0 1-3.73.67 12.55 12.55 0 0 1-2.77-.28V37a.38.38 0 0 1-.12.28.38.38 0 0 1-.29.12h-3.94a.4.4 0 0 1-.29-.12.38.38 0 0 1-.12-.28V12.31a.37.37 0 0 1 .41-.41h3.92a12.4 12.4 0 0 1 3.2-.37 9.14 9.14 0 0 1 3.72.64 5.71 5.71 0 0 1 2.26 1.74 6.55 6.55 0 0 1 1.18 2.48 17 17 0 0 1 .44 2.92zm-4.76-.82a9.53 9.53 0 0 0-.18-1.61 4.24 4.24 0 0 0-.48-1.26 2.3 2.3 0 0 0-.9-.82 3.42 3.42 0 0 0-1.5-.29 2 2 0 0 0-1.9.87 5.85 5.85 0 0 0-.65 2.43v1.4a5.73 5.73 0 0 0 .65 2.39 2 2 0 0 0 1.9.87 3.42 3.42 0 0 0 1.5-.29 2.16 2.16 0 0 0 .9-.82 4.29 4.29 0 0 0 .48-1.25 9.78 9.78 0 0 0 .18-1.64zM159.7 23.39a4.15 4.15 0 0 1 .08 2.06 3.79 3.79 0 0 1-.92 1.73 4.77 4.77 0 0 1-1.86 1.21 7.62 7.62 0 0 1-2.69.44 8 8 0 0 1-2.43-.36 7.89 7.89 0 0 1-2-1 6.64 6.64 0 0 1-1.58-1.45 5.35 5.35 0 0 1-1-1.82l3.23-1.32a6.18 6.18 0 0 0 1.7 1.75 2.62 2.62 0 0 0 1.37.47 1 1 0 0 0 .84-.46 1.25 1.25 0 0 0 .06-1.08 2.43 2.43 0 0 0-1-1.42 11.06 11.06 0 0 0-1.72-.88c-.63-.26-1.26-.55-1.89-.88a4.36 4.36 0 0 1-1.62-1.38 4.06 4.06 0 0 1-.61-2 4.43 4.43 0 0 1 .54-2.36 5.25 5.25 0 0 1 2-2 7 7 0 0 1 3.62-.81 7.26 7.26 0 0 1 2.23.34 6.87 6.87 0 0 1 1.94.95 7.37 7.37 0 0 1 1.51 1.44 5.77 5.77 0 0 1 .95 1.82l-4.15 1.84a3.68 3.68 0 0 0-.9-1.45 2.12 2.12 0 0 0-1.61-.59 1.19 1.19 0 0 0-.82.27 1.24 1.24 0 0 0-.39.63 1 1 0 0 0 .12.73 1.4 1.4 0 0 0 .78.61c.48.21 1 .46 1.67.77a15.53 15.53 0 0 1 1.85 1.04 9.24 9.24 0 0 1 1.69 1.41 4.47 4.47 0 0 1 1.01 1.75zM173.84 12.31a.41.41 0 0 1 .41-.41h3.94a.4.4 0 0 1 .29.12.38.38 0 0 1 .12.29v6.52a32.94 32.94 0 0 1-.19 3.59 8.68 8.68 0 0 1-.95 3.23 5.91 5.91 0 0 1-2.28 2.35 8.24 8.24 0 0 1-4.2.9 11.25 11.25 0 0 1-3.5-.46 6 6 0 0 1-2.23-1.24 4.75 4.75 0 0 1-1.25-1.84 10 10 0 0 1-.54-2.22 15 15 0 0 1-.12-2.43v-8.45a.38.38 0 0 1 .12-.29.4.4 0 0 1 .29-.12h3.94a.41.41 0 0 1 .41.41V19.49a12.38 12.38 0 0 0 .25 2.47 3.27 3.27 0 0 0 .8 1.6 2.28 2.28 0 0 0 1.69.56 2.6 2.6 0 0 0 1.83-.56 3 3 0 0 0 .85-1.55 9.91 9.91 0 0 0 .24-2.32v-7.38zM185.91 28.9H182a.36.36 0 0 1-.4-.41v-23a.36.36 0 0 1 .4-.41h3.95a.37.37 0 0 1 .41.41v23a.37.37 0 0 1-.45.41zM203.28 16.08a3.39 3.39 0 0 1 .16.77 3.65 3.65 0 0 1-.07 1.07 4 4 0 0 1-.46 1.15 3.1 3.1 0 0 1-1 1l-6.43 4a3.07 3.07 0 0 0 1.57.34 2.42 2.42 0 0 0 1.43-.44 2.8 2.8 0 0 0 .88-1l4.38 1.84a5.82 5.82 0 0 1-1 1.7 6.94 6.94 0 0 1-1.53 1.37 7.44 7.44 0 0 1-2 .94 8.35 8.35 0 0 1-2.38.34 8.63 8.63 0 0 1-3.67-.67 5.9 5.9 0 0 1-2.26-1.75 6.34 6.34 0 0 1-1.17-2.5 16.4 16.4 0 0 1-.44-2.94v-1.65a13.29 13.29 0 0 1 .51-3 7 7 0 0 1 1.27-2.51 6.22 6.22 0 0 1 2.26-1.75 8 8 0 0 1 3.5-.67 6.06 6.06 0 0 1 1.92.33 7.78 7.78 0 0 1 3.47 2.27 6.15 6.15 0 0 1 1.06 1.76zm-6.29.27a2.83 2.83 0 0 0-2.26 1.21 5.23 5.23 0 0 0-.69 2.87v.07l5-3.13a2.6 2.6 0 0 0-.51-.54 2.68 2.68 0 0 0-.65-.36 1.93 1.93 0 0 0-.88-.12z"/>
    <path fill="#7b8794" d="M2.8 44.84v1.68a5.57 5.57 0 0 0 .2 1.37 1.77 1.77 0 0 0 .52.92 1.66 1.66 0 0 0 1.13.33 1.36 1.36 0 0 0 1-.34 1.76 1.76 0 0 0 .44-.94 7.75 7.75 0 0 0 .09-1.45v-8.27a.24.24 0 0 1 .24-.24H8.7a.24.24 0 0 1 .24.24V47.1a9.58 9.58 0 0 1-.07 1.43 6.12 6.12 0 0 1-.32 1.31 2.77 2.77 0 0 1-.72 1.08 3.43 3.43 0 0 1-1.31.73 6.68 6.68 0 0 1-2.06.27A4.87 4.87 0 0 1 2 51.39 3.48 3.48 0 0 1 .67 50a5.13 5.13 0 0 1-.56-1.9C0 47.41 0 46.71 0 46v-7.86A.22.22 0 0 1 .07 38a.22.22 0 0 1 .17-.07h2.32a.24.24 0 0 1 .24.24zM13.26 51.88h-2.32a.21.21 0 0 1-.24-.24V38.16a.21.21 0 0 1 .24-.24h2.32a.21.21 0 0 1 .24.24v13.48a.21.21 0 0 1-.24.24zM15.24 45.64h5.62v1.78h-5.62zM29.86 40.72a6.36 6.36 0 0 0-1.71.23 3.68 3.68 0 0 0-1.42.76 3.73 3.73 0 0 0-1 1.41 5.76 5.76 0 0 0-.36 2.17 4 4 0 0 0 .39 1.88 3 3 0 0 0 1 1.17 4.12 4.12 0 0 0 1.46.59 8.6 8.6 0 0 0 1.7.17h1.2a.21.21 0 0 1 .24.24v2.3a.21.21 0 0 1-.24.24h-2.26a7.17 7.17 0 0 1-2.16-.35 5.79 5.79 0 0 1-2-1.13 5.9 5.9 0 0 1-1.5-2 7 7 0 0 1-.58-3 9.54 9.54 0 0 1 .56-3.46 6.51 6.51 0 0 1 1.44-2.29 5.45 5.45 0 0 1 2-1.28 6 6 0 0 1 2.14-.4h2.48a.21.21 0 0 1 .24.24v2.3a.21.21 0 0 1-.24.24zM40.72 43a1.91 1.91 0 0 1 .32.32 2.76 2.76 0 0 1 .33.54 3.85 3.85 0 0 1 .26.75 4 4 0 0 1 .11 1v5.62a1.34 1.34 0 0 1-.11.51.43.43 0 0 1-.45.25h-2a7.24 7.24 0 0 1-1.9.22 5.36 5.36 0 0 1-3.12-.71 2.54 2.54 0 0 1-1-2.19 2.73 2.73 0 0 1 .19-1 3 3 0 0 1 .56-.92 3.87 3.87 0 0 1 .9-.74A3.78 3.78 0 0 1 36 46.1a4.16 4.16 0 0 1 .74-.09 5.35 5.35 0 0 1 .8 0 4.16 4.16 0 0 1 .75.14 3 3 0 0 1 .59.24V46a1.71 1.71 0 0 0-.54-1 1.77 1.77 0 0 0-1.18-.35 1.32 1.32 0 0 0-.88.26 1.63 1.63 0 0 0-.46.72l-2.64-1.1a3.7 3.7 0 0 1 .46-1 4 4 0 0 1 .61-.72 3.49 3.49 0 0 1 .69-.49 3.62 3.62 0 0 1 .72-.29 3.45 3.45 0 0 1 .75-.13h.87a5.32 5.32 0 0 1 3.44 1.1zm-1.84 6.18a1.28 1.28 0 0 0-.46-1.07 2 2 0 0 0-1.3-.37 1.58 1.58 0 0 0-.54.11 1.83 1.83 0 0 0-.51.29 1.69 1.69 0 0 0-.38.42 1 1 0 0 0-.15.54 1.57 1.57 0 0 0 .46 1.14 1.55 1.55 0 0 0 1.26.44 2 2 0 0 0 1.17-.41 1.36 1.36 0 0 0 .45-1.13zM52.38 47.24a10.59 10.59 0 0 1-.26 1.76 4.18 4.18 0 0 1-.68 1.48 3.38 3.38 0 0 1-1.34 1 5.32 5.32 0 0 1-2.2.39 7.48 7.48 0 0 1-1.62-.16v5a.24.24 0 0 1-.24.24h-2.32a.24.24 0 0 1-.24-.24V42.14a.21.21 0 0 1 .24-.24H46a7.21 7.21 0 0 1 1.89-.22 5.4 5.4 0 0 1 2.18.38 3.33 3.33 0 0 1 1.34 1 3.94 3.94 0 0 1 .69 1.46 10.47 10.47 0 0 1 .26 1.72zm-2.8-.48a5.39 5.39 0 0 0-.11-.95 2.24 2.24 0 0 0-.28-.74 1.23 1.23 0 0 0-.53-.48 2 2 0 0 0-.88-.17 1.18 1.18 0 0 0-1.12.51 3.4 3.4 0 0 0-.38 1.43v.82a3.35 3.35 0 0 0 .38 1.41 1.18 1.18 0 0 0 1.12.51 2 2 0 0 0 .88-.17 1.23 1.23 0 0 0 .53-.48 2.24 2.24 0 0 0 .28-.74 5.39 5.39 0 0 0 .11-.95zM61.4 48.66a2.39 2.39 0 0 1 .05 1.21 2.3 2.3 0 0 1-.54 1 2.76 2.76 0 0 1-1.09.71 4.47 4.47 0 0 1-1.58.26 4.76 4.76 0 0 1-1.43-.21 4.65 4.65 0 0 1-1.21-.57 4 4 0 0 1-.93-.85 3.26 3.26 0 0 1-.57-1.07l1.9-.78a3.65 3.65 0 0 0 1 1 1.57 1.57 0 0 0 .81.28.58.58 0 0 0 .49-.27.74.74 0 0 0 0-.64 1.44 1.44 0 0 0-.61-.83 6.37 6.37 0 0 0-1-.52c-.37-.15-.74-.33-1.11-.52a2.51 2.51 0 0 1-.93-.85 2.43 2.43 0 0 1-.36-1.2 2.56 2.56 0 0 1 .32-1.39 3 3 0 0 1 1.15-1.15 4.1 4.1 0 0 1 2.13-.48 4.42 4.42 0 0 1 1.31.2 4 4 0 0 1 1.14.56 4 4 0 0 1 .89.85 3.43 3.43 0 0 1 .56 1.07l-2.41 1.13a2.18 2.18 0 0 0-.53-.85 1.22 1.22 0 0 0-1-.35.68.68 0 0 0-.48.16.7.7 0 0 0-.23.37.61.61 0 0 0 .07.43.83.83 0 0 0 .46.36c.28.12.61.27 1 .45a10.41 10.41 0 0 1 1.11.63 5.32 5.32 0 0 1 1 .83 2.58 2.58 0 0 1 .62 1.03zM69.72 42.14a.24.24 0 0 1 .28-.24h2.32a.24.24 0 0 1 .24.24V46c0 .71 0 1.41-.11 2.11a5.13 5.13 0 0 1-.56 1.9 3.48 3.48 0 0 1-1.34 1.38 4.87 4.87 0 0 1-2.55.51 6.68 6.68 0 0 1-2-.27 3.43 3.43 0 0 1-1.31-.73 2.77 2.77 0 0 1-.69-1.08 6.12 6.12 0 0 1-.32-1.31 9.58 9.58 0 0 1-.07-1.43V42.14a.24.24 0 0 1 .24-.24h2.32a.24.24 0 0 1 .24.24v4.25a7.54 7.54 0 0 0 .15 1.46 1.9 1.9 0 0 0 .47.94 1.34 1.34 0 0 0 1 .33 1.55 1.55 0 0 0 1.08-.33 1.76 1.76 0 0 0 .5-.91 6.15 6.15 0 0 0 .14-1.37v-4.37zM76.82 51.9H74.5a.21.21 0 0 1-.24-.24V38.14a.21.21 0 0 1 .24-.24h2.32a.21.21 0 0 1 .24.24v13.52a.21.21 0 0 1-.24.24zM87 44.36a2 2 0 0 1 .09.45 2.32 2.32 0 0 1 0 .63 2.41 2.41 0 0 1-.27.68 1.81 1.81 0 0 1-.6.6l-3.78 2.34a1.85 1.85 0 0 0 .92.2 1.42 1.42 0 0 0 .84-.26 1.55 1.55 0 0 0 .52-.6l2.58 1.08a3.48 3.48 0 0 1-.58 1 4.11 4.11 0 0 1-.9.81 4.41 4.41 0 0 1-1.18.55 4.93 4.93 0 0 1-1.4.2 5.15 5.15 0 0 1-2.16-.39 3.4 3.4 0 0 1-1.33-1 3.83 3.83 0 0 1-.69-1.47 9.61 9.61 0 0 1-.26-1.73v-1a8.33 8.33 0 0 1 .3-1.74 4.22 4.22 0 0 1 .75-1.48 3.63 3.63 0 0 1 1.33-1 4.79 4.79 0 0 1 2.06-.39 3.57 3.57 0 0 1 1.13.19 4.71 4.71 0 0 1 1.11.53 5.1 5.1 0 0 1 .93.81 3.71 3.71 0 0 1 .59.99zm-3.7.16a1.64 1.64 0 0 0-1.33.71 3 3 0 0 0-.41 1.69l2.92-1.84a1.3 1.3 0 0 0-.3-.32 2 2 0 0 0-.38-.21 1.17 1.17 0 0 0-.46-.03zM96.34 48.66a2.39 2.39 0 0 1 0 1.21 2.3 2.3 0 0 1-.54 1 2.76 2.76 0 0 1-1.09.71 4.47 4.47 0 0 1-1.58.26 4.76 4.76 0 0 1-1.43-.21 4.65 4.65 0 0 1-1.21-.57 4 4 0 0 1-.93-.85 3.26 3.26 0 0 1-.56-1.05l1.9-.78a3.65 3.65 0 0 0 1 1 1.57 1.57 0 0 0 .81.28.58.58 0 0 0 .49-.27.74.74 0 0 0 0-.64 1.44 1.44 0 0 0-.61-.83 6.37 6.37 0 0 0-1-.52c-.37-.15-.74-.33-1.11-.52a2.51 2.51 0 0 1-.93-.85 2.43 2.43 0 0 1-.36-1.2 2.56 2.56 0 0 1 .32-1.39 3 3 0 0 1 1.15-1.15 4.1 4.1 0 0 1 2.13-.48 4.42 4.42 0 0 1 1.31.2 4 4 0 0 1 1.14.56 4 4 0 0 1 .89.85 3.43 3.43 0 0 1 .56 1.07l-2.37 1.11a2.18 2.18 0 0 0-.53-.85 1.22 1.22 0 0 0-1-.35.68.68 0 0 0-.48.16.7.7 0 0 0-.23.37.61.61 0 0 0 .07.43.83.83 0 0 0 .46.36c.28.12.61.27 1 .45a10.41 10.41 0 0 1 1.11.63 5.32 5.32 0 0 1 1 .83 2.58 2.58 0 0 1 .62 1.03z"/>
</svg>
